# xmcd
#
# Track frame offsets: 
#        150
#        18327
#        36766
#        51532
#        72139
#        96609
#        108528
#        124988
#        137669
#        162473
#        187688
#
# Disc length: 2608 seconds
#
# Revision: 0
# Processed by: cddbd v1.5.1PL2 Copyright (c) Steve Scherf et al.
# Submitted via: ExactAudioCopy v0.95b3
#
DISCID=9d0a2e0b
DTITLE=Szörényi Levente - Szörényi Levente
DYEAR=1973
DGENRE=Country
TTITLE0=Zazi
TTITLE1=Fénykeresõ
TTITLE2=Az angolna
TTITLE3=Életrajz
TTITLE4=A lány
TTITLE5=Vidéki kislány
TTITLE6=Bánatvirág
TTITLE7=Ne vágj ki minden fát
TTITLE8=Utazás
TTITLE9=Dal az ártatlanságról
TTITLE10=Õsz van már
EXTD=
EXTT0=
EXTT1=
EXTT2=
EXTT3=
EXTT4=
EXTT5=
EXTT6=
EXTT7=
EXTT8=
EXTT9=
EXTT10=
PLAYORDER=
